<svg id="outside_funding-arrangement-" data-name="outside funding-arrangement-" xmlns="http://www.w3.org/2000/svg" width="57" height="53" viewBox="0 0 57 53">
  <metadata><?xpacket begin="﻿" id="W5M0MpCehiHzreSzNTczkc9d"?>
<x:xmpmeta xmlns:x="adobe:ns:meta/" x:xmptk="Adobe XMP Core 5.6-c142 79.160924, 2017/07/13-01:06:39        ">
   <rdf:RDF xmlns:rdf="http://www.w3.org/1999/02/22-rdf-syntax-ns#">
      <rdf:Description rdf:about=""/>
   </rdf:RDF>
</x:xmpmeta>
                                                                                                    
                                                                                                    
                                                                                                    
                                                                                                    
                                                                                                    
                                                                                                    
                                                                                                    
                                                                                                    
                                                                                                    
                                                                                                    
                                                                                                    
                                                                                                    
                                                                                                    
                                                                                                    
                                                                                                    
                                                                                                    
                                                                                                    
                                                                                                    
                                                                                                    
                                                                                                    
                           
<?xpacket end="w"?></metadata>
<defs>
    <style>
      .cls-1 {
        fill: #3bac49;
      }

      .cls-1, .cls-2 {
        fill-rule: evenodd;
      }

      .cls-2 {
        fill: #fff;
      }
    </style>
  </defs>
  <path class="cls-1" d="M367.962,317.572H351.044s-3.056.7-3.044-2.99v-38.33s0.334-3.035,2.767-2.99h7.749s-0.484-3.307,2.491-3.262,14.944,0,14.944,0A3.3,3.3,0,0,1,379,273.534h7.749a3.489,3.489,0,0,1,2.767,2.718V286.31s-14.52-2.754-18.818,8.155c0,0-2.067,8.754-1.384,14.136s5.959,7.3,8.3,8.427S366.031,317.572,367.962,317.572Z" transform="translate(-348 -270)"/>
  <path class="cls-2" d="M354.919,283.32h13.56v3.534h-13.56V283.32Z" transform="translate(-348 -270)"/>
  <path id="Rectangle_10_copy" data-name="Rectangle 10 copy" class="cls-2" d="M354.919,293.65h7.195v3.534h-7.195V293.65Z" transform="translate(-348 -270)"/>
  <path id="Rectangle_10_copy_2" data-name="Rectangle 10 copy 2" class="cls-2" d="M354.919,293.65h7.195v3.534h-7.195V293.65Z" transform="translate(-348 -270)"/>
  <path id="Rectangle_10_copy_3" data-name="Rectangle 10 copy 3" class="cls-2" d="M354.919,303.98h7.195v3.534h-7.195V303.98Z" transform="translate(-348 -270)"/>
  <path id="Forma_1" data-name="Forma 1" class="cls-1" d="M404.132,318.034l-6.948-6.823a16.27,16.27,0,0,0,3.03-9.451A16.839,16.839,0,1,0,383.377,318.3,16.955,16.955,0,0,0,393,315.321l6.946,6.824a3,3,0,0,0,4.188,0A2.874,2.874,0,0,0,404.132,318.034Zm-20.755-4.461A11.815,11.815,0,1,1,395.4,301.76,11.922,11.922,0,0,1,383.377,313.573Z" transform="translate(-348 -270)"/>
</svg>
